HIERARCHY
ROOT Hips
{
	OFFSET -3.958830 18.904000 13.208200
	CHANNELS 6 Xposition Yposition Zposition Zrotation Yrotation Xrotation 
	JOINT LHipJoint
	{
		OFFSET 0.000000 0.000000 0.000000
		CHANNELS 3 Zrotation Yrotation Xrotation
		JOINT LeftUpLeg
		{
			OFFSET 1.800000 -1.400000 0.085000
			CHANNELS 3 Zrotation Yrotation Xrotation
			JOINT LeftLeg
			{
				OFFSET 2.215000 -6.000000 0.000000
				CHANNELS 3 Zrotation Yrotation Xrotation
				JOINT LeftFoot
				{
					OFFSET 2.500000 -6.900000 0.000000
					CHANNELS 3 Zrotation Yrotation Xrotation
					JOINT LeftToeBase
					{
						OFFSET 0.200000 -0.500000 1.950000
						CHANNELS 3 Zrotation Yrotation Xrotation
						End Site
						{
							OFFSET 0.000000 0.000000 0.000000
						}
					}
				}
			}
		}
	}
	JOINT RHipJoint
	{
		OFFSET 0.000000 0.000000 0.000000
		CHANNELS 3 Zrotation Yrotation Xrotation
		JOINT RightUpLeg
		{
			OFFSET -1.800000 -1.400000 0.085000
			CHANNELS 3 Zrotation Yrotation Xrotation
			JOINT RightLeg
			{
				OFFSET -2.215000 -6.000000 0.000000
				CHANNELS 3 Zrotation Yrotation Xrotation
				JOINT RightFoot
				{
					OFFSET -2.500000 -6.900000 0.000000
					CHANNELS 3 Zrotation Yrotation Xrotation
					JOINT RightToeBase
					{
						OFFSET -0.200000 -0.500000 1.950000
						CHANNELS 3 Zrotation Yrotation Xrotation
						End Site
						{
							OFFSET 0.000000 0.000000 0.000000
						}
					}
				}
			}
		}
	}
	JOINT LowerBack
	{
		OFFSET 0.000000 0.000000 0.000000
		CHANNELS 3 Zrotation Yrotation Xrotation
		JOINT Spine
		{
			OFFSET -0.087000 1.940000 -0.288900
			CHANNELS 3 Zrotation Yrotation Xrotation
			JOINT Spine1
			{
				OFFSET 0.000000 1.950000 0.060000
				CHANNELS 3 Zrotation Yrotation Xrotation
				JOINT Neck
				{
					OFFSET 0.000000 0.000000 0.000000
					CHANNELS 3 Zrotation Yrotation Xrotation
					JOINT Neck1
					{
						OFFSET 0.000000 1.600000 0.340000
						CHANNELS 3 Zrotation Yrotation Xrotation
						JOINT Head
						{
							OFFSET 0.000000 1.667000 -0.240000
							CHANNELS 3 Zrotation Yrotation Xrotation
							End Site
							{
								OFFSET 0.000000 0.000000 0.000000
							}
						}
					}
				}
				JOINT LeftShoulder
				{
					OFFSET 0.000000 0.000000 0.000000
					CHANNELS 3 Zrotation Yrotation Xrotation
					JOINT LeftArm
					{
						OFFSET 2.700000 1.550000 -0.730000
						CHANNELS 3 Zrotation Yrotation Xrotation
						JOINT LeftForeArm
						{
							OFFSET 5.450000 0.000000 0.000000
							CHANNELS 3 Zrotation Yrotation Xrotation
							JOINT LeftHand
							{
								OFFSET 3.450000 0.000000 0.000000
								CHANNELS 3 Zrotation Yrotation Xrotation
								JOINT LeftHandIndex1
								{
									OFFSET 0.750000 0.000000 0.000000
									CHANNELS 3 Zrotation Yrotation Xrotation
									End Site
									{
										OFFSET 0.000000 0.000000 0.000000
									}
								}
							}
						}
					}
				}
				JOINT RightShoulder
				{
					OFFSET 0.000000 0.000000 0.000000
					CHANNELS 3 Zrotation Yrotation Xrotation
					JOINT RightArm
					{
						OFFSET -2.700000 1.550000 -0.730000
						CHANNELS 3 Zrotation Yrotation Xrotation
						JOINT RightForeArm
						{
							OFFSET -5.450000 0.000000 0.000000
							CHANNELS 3 Zrotation Yrotation Xrotation
							JOINT RightHand
							{
								OFFSET -3.450000 0.000000 0.000000
								CHANNELS 3 Zrotation Yrotation Xrotation
								JOINT RightHandIndex1
								{
									OFFSET -0.750000 0.000000 0.000000
									CHANNELS 3 Zrotation Yrotation Xrotation
									End Site
									{
										OFFSET 0.000000 0.000000 0.000000
									}
								}
							}
						}
					}
				}
			}
		}
	}
}
MOTION
Frames: 14
Frame Time: 0.016667
0.797080 16.555710 -2.522080 -11.930503 -5.253799 -4.689004 -15.159594 11.893652 1.510064 19.761847 -2.060064 -13.092372 -7.203691 9.387975 25.119007 -0.768673 6.602890 2.394266 0.730170 -0.054070 0.562020 18.857284 -7.158845 7.028194 -29.914999 5.381936 -64.363435 19.442856 -40.327003 81.378575 -3.510769 -16.724295 -0.265697 0.112670 0.248420 0.323510 -4.402586 -3.143047 -9.194040 23.075727 -12.232480 32.885604 -7.590351 -5.800716 3.055941 2.019320 -5.288865 -10.521677 -11.359577 3.962840 30.989130 -1.275680 2.571420 -21.692310 -17.620724 -14.145219 3.279752 -9.352492 -4.899946 -4.195421 -165.282907 -62.815428 146.274811 -3.524236 3.231343 1.118350 0.080560 -0.041170 0.394800 13.515566 14.682190 7.997561 33.263454 -0.274321 -11.264557 15.494544 50.273326 5.565902 1.335517 -1.501214 -0.446130 0.359200 -0.053740 -0.569230 
0.831370 16.527340 -2.567030 -12.188709 -6.704845 -5.305576 -15.184951 11.859347 1.490846 20.098736 -1.814924 -12.708609 -7.625368 9.889022 25.993378 -0.697862 6.823487 2.310268 0.722650 -0.064420 0.557510 18.854120 -6.972134 7.203938 -30.810900 6.136878 -65.855310 19.434487 -41.826886 83.926853 -3.682955 -17.242779 -0.348392 0.089010 0.231830 0.326650 -4.381431 -3.233917 -9.272369 23.371676 -12.912199 35.809698 -8.034967 -5.967217 2.141513 2.253597 -5.897415 -10.903488 -12.555121 4.910440 31.193033 -1.238240 2.873850 -22.467300 -18.065245 -14.688994 3.658193 -8.213905 -3.018945 -4.614243 -161.270456 -61.389711 138.276321 -3.507064 3.257522 1.133650 0.057230 -0.023210 0.390290 13.543837 15.847779 8.175466 32.625309 0.387580 -11.630629 14.854487 51.839530 5.577811 1.339775 -1.487943 -0.432400 0.349890 -0.052810 -0.564420 
0.888730 16.449800 -2.637940 -13.159237 -10.610900 -5.062624 -15.264865 11.654684 1.600364 21.910042 -1.250229 -13.054583 -9.594088 11.545281 27.814168 -0.530389 7.475709 2.050324 0.768290 -0.004300 0.568840 18.833165 -6.538350 7.465915 -31.755057 8.548009 -69.225993 20.700857 -44.846764 87.083082 -4.007442 -18.161357 -0.488788 0.101450 0.195040 0.325900 -4.333703 -3.356346 -9.432485 23.940041 -13.397006 40.052771 -8.190570 -5.635443 0.707600 2.484035 -7.359681 -11.236483 -15.019087 6.603225 29.722642 -0.691380 3.072790 -24.121560 -19.119548 -14.854658 4.023867 -7.250200 -0.272941 -5.303499 -159.018411 -60.074311 132.742141 -3.453374 3.332639 1.136530 0.011020 0.007940 0.410000 14.280973 17.592883 8.165112 29.596881 1.699897 -11.689379 14.652174 54.768835 6.057550 1.352749 -1.522853 -0.393700 0.334080 -0.088720 -0.542170 
0.961040 16.345770 -2.709080 -14.110214 -16.655603 -4.011258 -15.390952 11.325598 1.788225 23.907633 -0.158486 -14.219323 -12.090021 14.065408 30.542185 -0.321356 8.425502 1.678956 0.813300 0.055740 0.582320 18.806334 -5.994223 7.791326 -33.731215 11.761036 -74.725708 22.265146 -47.175563 89.227156 -4.280063 -18.980710 -0.624593 0.128190 0.168080 0.336640 -4.320504 -3.374268 -9.660775 24.090759 -12.792707 44.357957 -8.363708 -4.387589 -1.032243 2.709056 -8.641869 -11.255291 -17.065836 8.393994 27.875385 -0.709090 3.185170 -25.169760 -21.074164 -14.720626 4.110873 -6.158697 2.083961 -5.382540 -152.484025 -59.010341 120.900397 -3.444135 3.420269 1.127950 -0.017110 0.030850 0.421010 15.907185 19.200946 7.817484 25.133742 3.498657 -11.293254 14.506213 57.079777 6.608234 1.369050 -1.561984 -0.358950 0.320030 -0.109780 -0.522390 
1.041540 16.230180 -2.781780 -14.190442 -24.466493 -2.977489 -15.503408 11.234065 1.988228 24.156027 1.493111 -15.715042 -13.706441 16.614492 33.715725 -0.101801 9.266304 1.377915 0.839190 0.096720 0.622280 18.716339 -5.826352 7.818289 -33.936884 16.860526 -75.625585 23.889902 -46.816487 89.201271 -4.397474 -19.219564 -0.656605 0.141840 0.135330 0.341770 -4.286092 -3.292770 -9.778162 23.076840 -10.112788 48.792393 -8.982148 -1.965574 -2.915399 3.214467 -9.017878 -11.222238 -17.616033 9.856214 27.393788 -2.240290 4.018480 -26.191850 -23.649372 -14.712555 3.840040 -4.969356 3.257679 -5.406460 -142.310439 -58.321975 104.473946 -3.458875 3.461240 1.131510 -0.034190 0.068520 0.416350 17.536315 20.793043 7.677632 21.716587 4.581864 -11.597153 14.625268 59.733947 7.024770 1.381144 -1.581382 -0.339020 0.324500 -0.130520 -0.521450 
1.099980 16.113700 -2.788800 -14.730385 -32.151341 -2.669349 -15.590666 11.182809 2.105979 25.616098 3.740267 -13.664857 -16.697093 19.014018 33.466713 0.108795 9.863235 1.184687 0.890230 0.156200 0.658790 18.639310 -5.773622 7.781364 -33.101821 22.807415 -75.624453 24.196672 -45.310769 89.862610 -4.500111 -19.361795 -0.680666 0.166600 0.082520 0.345100 -4.342823 -3.065841 -9.837739 22.904401 -7.701515 52.437049 -10.151934 0.383980 -4.184666 3.664505 -9.708215 -11.421965 -19.236990 11.084833 27.845508 -2.547090 3.742790 -27.685590 -26.141395 -14.571875 3.648165 -6.077779 3.924652 -5.447705 -126.172313 -58.295448 82.514079 -3.436233 3.492915 1.162400 -0.083810 0.118920 0.420640 19.182975 22.413949 7.781860 20.148432 5.095471 -12.541762 13.691422 61.756072 6.575546 1.377874 -1.600315 -0.313350 0.328110 -0.153720 -0.517820 
1.132000 15.979310 -2.753600 -13.466331 -33.989603 -3.336695 -15.602049 11.175128 2.101387 24.695088 4.195785 -13.444589 -17.456820 20.374521 35.251057 0.232633 10.251103 1.072261 0.900970 0.173500 0.679400 18.628560 -5.761758 7.855311 -34.850436 23.144243 -75.513369 25.338088 -45.720794 89.592304 -4.497403 -19.368736 -0.688464 0.191950 0.070330 0.314770 -4.393375 -2.970735 -9.863906 22.652574 -6.878627 52.686827 -10.988852 0.670164 -5.396836 3.702913 -9.593099 -11.095360 -19.310727 11.525926 28.899009 -2.689210 3.306760 -26.167270 -29.685322 -14.602602 3.303730 -7.372345 3.987160 -5.173362 -104.442704 -56.838905 58.670753 -3.390053 3.540764 1.141640 -0.086690 0.109740 0.413850 22.518734 22.540922 7.740734 20.521130 4.477200 -13.368119 13.420245 64.927049 6.283620 1.385039 -1.646746 -0.320910 0.342510 -0.166480 -0.520420 
1.133030 15.850870 -2.692450 -11.873546 -31.213045 -3.967334 -15.577619 11.137494 2.127596 23.320052 3.339140 -14.963000 -16.520640 21.029327 38.647011 0.301355 10.674657 0.948243 0.853230 0.129240 0.641720 18.660179 -5.695277 7.930904 -37.329279 20.046565 -75.308920 27.073851 -47.210156 88.145662 -4.417861 -19.233016 -0.664455 0.190440 0.132430 0.298480 -4.376254 -3.079457 -9.905912 22.795866 -7.446476 50.076088 -10.875899 -0.178971 -5.944648 3.490438 -9.320005 -10.326254 -19.045368 11.167569 30.147728 -2.605650 2.401660 -23.490010 -32.943764 -14.377333 2.797231 -10.796528 3.702503 -5.321578 -80.851100 -52.268744 37.342013 -3.332407 3.506522 1.096110 -0.035700 0.060080 0.404580 25.910667 21.499847 7.525488 21.716239 3.507462 -13.758704 14.784386 67.947611 6.906385 1.385548 -1.676283 -0.347570 0.381110 -0.130950 -0.508550 
1.083410 15.749140 -2.611090 -10.333070 -26.246751 -5.167740 -15.541656 11.284199 2.038877 22.025050 2.127442 -15.109392 -14.250425 20.367729 41.266696 0.289959 10.760679 0.931157 0.831030 0.115610 0.617820 18.681902 -5.665423 7.980291 -39.654100 15.960998 -73.581434 31.310658 -48.987555 83.764322 -4.268723 -18.635353 -0.538435 0.190930 0.168300 0.298090 -4.241159 -3.451134 -9.904109 22.003775 -8.124098 46.586022 -9.618647 -1.451918 -5.848876 3.250901 -8.665928 -9.337988 -18.087622 10.827666 32.222115 -3.121060 2.330560 -22.103080 -35.509643 -13.755154 2.342659 -16.175466 3.190047 -5.695151 -57.478495 -43.878961 19.415034 -3.288907 3.390714 1.075100 0.002820 0.041870 0.408950 28.680395 19.624963 6.960494 24.658234 3.464151 -13.930057 18.303204 70.740982 8.854276 1.387057 -1.702328 -0.358320 0.404960 -0.114320 -0.502270 
1.037610 15.682640 -2.529700 -9.108954 -21.567350 -5.668983 -15.452779 11.491387 2.055316 21.094593 1.188437 -14.388949 -13.890195 19.267819 40.330123 0.194333 10.468372 1.023797 0.782380 0.053430 0.631200 18.694948 -5.975590 7.707688 -38.996330 13.758719 -68.096016 32.248814 -47.287869 79.978503 -3.992544 -17.743251 -0.404072 0.161030 0.167940 0.304410 -4.168713 -3.546185 -9.817268 21.805989 -8.517754 42.278521 -9.706036 -2.243969 -5.589591 3.568274 -7.130417 -8.434815 -15.344164 9.580192 35.148765 -4.814110 2.859980 -20.914320 -38.446097 -13.075225 1.845221 -20.517483 2.304382 -5.417871 -37.970528 -32.994808 7.830886 -3.287478 3.232487 1.070760 0.032750 0.032540 0.366170 30.635121 17.287689 6.559872 29.279906 3.046611 -13.985131 25.680218 71.538330 12.916898 1.418503 -1.713751 -0.374560 0.396630 -0.083500 -0.530020 
0.994400 15.652940 -2.433700 -8.111737 -17.293968 -5.815350 -15.340371 11.753453 2.155304 20.214270 0.474866 -14.789401 -12.826535 18.265233 40.384985 0.157386 10.245355 1.099840 0.746550 -0.000550 0.641460 18.695166 -6.511514 7.181841 -36.701978 12.575074 -60.630614 31.232448 -43.756116 76.197625 -3.663183 -16.736029 -0.252474 0.120410 0.170580 0.333720 -4.154012 -3.477173 -9.667591 21.909911 -8.532203 36.914872 -10.003932 -2.764432 -4.906839 4.169165 -5.446186 -7.825444 -12.368470 8.583584 38.670373 -6.457560 3.627660 -18.079910 -41.404409 -12.192338 1.764827 -24.696903 1.981081 -4.369966 -21.818101 -20.628062 1.359847 -3.347965 3.041201 1.039900 0.068700 0.026850 0.349310 32.090857 14.892177 6.072427 33.703237 2.655240 -13.962435 33.540628 73.509556 17.815612 1.474615 -1.762380 -0.359960 0.352690 -0.077560 -0.536920 
0.943900 15.641580 -2.312910 -6.661682 -13.868362 -5.735120 -15.224325 12.040618 2.240509 19.021579 0.233057 -14.324183 -12.677461 17.360822 38.888077 0.090338 9.901663 1.247872 0.660120 -0.099490 0.591840 18.682002 -7.170572 6.578449 -34.791291 11.637476 -52.774614 30.791313 -39.639081 70.851625 -3.238608 -15.506248 -0.013765 0.074040 0.229280 0.315110 -4.177766 -3.250785 -9.467376 21.290919 -7.344993 31.403391 -9.829600 -2.610020 -4.469951 4.487364 -4.127169 -7.117581 -9.823943 7.080728 40.714626 -7.143070 3.488620 -14.728130 -43.011988 -9.941104 1.211894 -28.413901 2.447984 -2.679147 -11.949080 -9.929603 -1.033216 -3.548455 2.739014 1.001780 0.124670 -0.031370 0.334310 32.884160 11.564612 5.580098 37.589693 1.284322 -13.057975 45.610307 75.790302 26.212584 1.578012 -1.735452 -0.396140 0.362860 -0.039790 -0.537020 
0.878420 15.626150 -2.199560 -5.108773 -9.947026 -4.855194 -15.121869 12.252864 2.257772 17.286042 -0.005572 -14.858603 -11.509950 16.137084 37.911675 0.007059 9.488893 1.424481 0.563650 -0.237090 0.513720 18.683312 -7.822328 6.042196 -33.458227 10.343343 -46.555010 30.203463 -35.863154 65.436956 -2.806780 -14.385309 0.209198 0.012530 0.324980 0.330710 -4.244000 -2.884736 -9.246582 19.826263 -5.751679 25.176590 -9.109836 -2.309401 -3.779302 4.573199 -3.073706 -6.438108 -7.371804 5.690480 40.361252 -7.054540 3.262440 -9.422170 -42.032251 -6.835350 0.329778 -32.460497 3.764104 -1.536176 -6.165257 -2.338612 -1.631473 -3.806546 2.590353 0.930550 0.213180 -0.130400 0.333830 31.733927 7.638355 5.053180 42.398084 -0.140791 -10.752606 62.129115 78.893384 38.502138 1.909077 -1.443202 -0.424300 0.325540 0.006110 -0.526740 
0.812090 15.613570 -2.092930 -2.716297 -5.012715 -3.656514 -15.097101 12.508370 2.298111 14.165405 -0.755435 -16.130503 -9.499481 14.482679 37.794472 -0.090445 9.017717 1.640131 0.458460 -0.348540 0.395710 18.606716 -8.597433 5.295512 -31.969151 8.032825 -39.322970 28.271284 -31.075126 58.795766 -2.248860 -13.001937 0.506459 -0.013750 0.471150 0.337930 -4.130267 -2.563648 -8.863222 15.906488 -4.387448 19.022451 -7.287617 -2.554849 -2.848472 4.167936 -2.374619 -5.220128 -5.354585 4.232503 36.516543 -7.053200 2.818720 -4.245280 -38.881156 -2.601046 -0.830463 -36.655818 4.815594 -1.406418 -2.983381 1.647016 -1.548083 -4.066001 2.574043 0.796330 0.346240 -0.271550 0.350120 29.731309 3.062467 3.607686 45.439223 -0.479315 -7.965310 82.960577 77.605572 52.068843 2.594629 -0.457753 -0.461220 0.307500 0.056580 -0.490750 
